# xmcd
#
# Track frame offsets:
#	150
#	9881
#	29996
#	42632
#	57177
#	71495
#	89479
#	103581
#	120592
#	138101
#	154510
#	170231
#
# Disc length: 2466 seconds
# Revision: 0
# Processed by: cddbd v1.5.2PL0 Copyright (c) Steve Scherf et al.
# Submitted via: dBpowerAMP V12.0
#
DISCID=a109a00c
DTITLE=Blind Lemon Pledge - Pledge Drive
DYEAR=2015
DGENRE=Blues
TTITLE0=Run John Run
TTITLE1=Moon Madness
TTITLE2=Nag Nag Nag
TTITLE3=Cora Lee
TTITLE4=Birmingham Walk
TTITLE5=5 Weeks of Heaven
TTITLE6=She Broke The Ten Commandments
TTITLE7=You Cant Get There From Here
TTITLE8=O Katrina
TTITLE9=You Know You Reallty Got the Blues
TTITLE10=KoKomo
TTITLE11=Rail Road Mama 
EXTD=
EXTT0=
EXTT1=
EXTT2=
EXTT3=
EXTT4=
EXTT5=
EXTT6=
EXTT7=
EXTT8=
EXTT9=
EXTT10=
EXTT11=
PLAYORDER=
